<svg fill="none" height="100%" width="100%" viewBox="0 0 400 400" xmlns:xlink="http://www.w3.org/1999/xlink" xmlns="http://www.w3.org/2000/svg"><defs><radialGradient id="i0" gradientUnits="userSpaceOnUse" spreadMethod="pad" cx="-0.123" cy="-0.19" r="13.159" fy="-0.19" fx="-0.123"><stop offset="0%" stop-color="#81a0fd" /><stop offset="95%" stop-color="#708dfd" /><stop offset="100%" stop-color="#607afe" /></radialGradient><radialGradient id="i1" gradientUnits="userSpaceOnUse" spreadMethod="pad" cx="-0.123" cy="-0.19" r="13.159" fy="-0.19" fx="-0.123"><stop offset="0%" stop-color="#81a0fd" /><stop offset="95%" stop-color="#708dfd" /><stop offset="100%" stop-color="#607afe" /></radialGradient><radialGradient id="i2" gradientUnits="userSpaceOnUse" spreadMethod="pad" cx="-0.123" cy="-0.19" r="13.159" fy="-0.19" fx="-0.123"><stop offset="0%" stop-color="#81a0fd" /><stop offset="95%" stop-color="#708dfd" /><stop offset="100%" stop-color="#607afe" /></radialGradient><radialGradient id="i3" gradientUnits="userSpaceOnUse" spreadMethod="pad" cx="-0.123" cy="-0.19" r="13.159" fy="-0.19" fx="-0.123"><stop offset="0%" stop-color="#81a0fd" /><stop offset="95%" stop-color="#708dfd" /><stop offset="100%" stop-color="#607afe" /></radialGradient><radialGradient id="i4" gradientUnits="userSpaceOnUse" spreadMethod="pad" cx="-0.123" cy="-0.19" r="13.159" fy="-0.19" fx="-0.123"><stop offset="0%" stop-color="#81a0fd" /><stop offset="95%" stop-color="#708dfd" /><stop offset="100%" stop-color="#607afe" /></radialGradient><radialGradient id="i5" gradientUnits="userSpaceOnUse" spreadMethod="pad" cx="-0.123" cy="-0.19" r="13.159" fy="-0.19" fx="-0.123"><stop offset="0%" stop-color="#81a0fd" /><stop offset="95%" stop-color="#708dfd" /><stop offset="100%" stop-color="#607afe" /></radialGradient><radialGradient id="i6" gradientUnits="userSpaceOnUse" spreadMethod="pad" cx="-0.123" cy="-0.19" r="13.159" fy="-0.19" fx="-0.123"><stop offset="0%" stop-color="#81a0fd" /><stop offset="95%" stop-color="#708dfd" /><stop offset="100%" stop-color="#607afe" /></radialGradient><radialGradient id="i7" gradientUnits="userSpaceOnUse" spreadMethod="pad" cx="-0.123" cy="-0.19" r="13.159" fy="-0.19" fx="-0.123"><stop offset="0%" stop-color="#81a0fd" /><stop offset="95%" stop-color="#708dfd" /><stop offset="100%" stop-color="#607afe" /></radialGradient><radialGradient id="i8" gradientUnits="userSpaceOnUse" spreadMethod="pad" cx="-0.123" cy="-0.19" r="13.159" fy="-0.19" fx="-0.123"><stop offset="0%" stop-color="#81a0fd" /><stop offset="95%" stop-color="#708dfd" /><stop offset="100%" stop-color="#607afe" /></radialGradient><radialGradient id="i9" gradientUnits="userSpaceOnUse" spreadMethod="pad" cx="-0.123" cy="-0.19" r="13.159" fy="-0.19" fx="-0.123"><stop offset="0%" stop-color="#81a0fd" /><stop offset="95%" stop-color="#708dfd" /><stop offset="100%" stop-color="#607afe" /></radialGradient><radialGradient id="i10" gradientUnits="userSpaceOnUse" spreadMethod="pad" cx="-0.123" cy="-0.19" r="13.159" fy="-0.19" fx="-0.123"><stop offset="0%" stop-color="#81a0fd" /><stop offset="95%" stop-color="#708dfd" /><stop offset="100%" stop-color="#607afe" /></radialGradient><radialGradient id="i11" gradientUnits="userSpaceOnUse" spreadMethod="pad" cx="-0.123" cy="-0.19" r="13.159" fy="-0.19" fx="-0.123"><stop offset="0%" stop-color="#81a0fd" /><stop offset="95%" stop-color="#708dfd" /><stop offset="100%" stop-color="#607afe" /></radialGradient><radialGradient id="i12" gradientUnits="userSpaceOnUse" spreadMethod="pad" cx="-0.123" cy="-0.19" r="13.159" fy="-0.19" fx="-0.123"><stop offset="0%" stop-color="#81a0fd" /><stop offset="95%" stop-color="#708dfd" /><stop offset="100%" stop-color="#607afe" /></radialGradient><radialGradient id="i13" gradientUnits="userSpaceOnUse" spreadMethod="pad" cx="-0.123" cy="-0.19" r="13.159" fy="-0.19" fx="-0.123"><stop offset="0%" stop-color="#81a0fd" /><stop offset="95%" stop-color="#708dfd" /><stop offset="100%" stop-color="#607afe" /></radialGradient><radialGradient id="i14" gradientUnits="userSpaceOnUse" spreadMethod="pad" cx="-0.123" cy="-0.19" r="13.159" fy="-0.19" fx="-0.123"><stop offset="0%" stop-color="#81a0fd" /><stop offset="95%" stop-color="#708dfd" /><stop offset="100%" stop-color="#607afe" /></radialGradient><radialGradient id="i15" gradientUnits="userSpaceOnUse" spreadMethod="pad" cx="-0.123" cy="-0.19" r="13.159" fy="-0.19" fx="-0.123"><stop offset="0%" stop-color="#81a0fd" /><stop offset="95%" stop-color="#708dfd" /><stop offset="100%" stop-color="#607afe" /></radialGradient><radialGradient id="i16" gradientUnits="userSpaceOnUse" spreadMethod="pad" cx="-0.123" cy="-0.19" r="13.159" fy="-0.19" fx="-0.123"><stop offset="0%" stop-color="#81a0fd" /><stop offset="95%" stop-color="#708dfd" /><stop offset="100%" stop-color="#607afe" /></radialGradient><radialGradient id="i17" gradientUnits="userSpaceOnUse" spreadMethod="pad" cx="-0.123" cy="-0.19" r="13.159" fy="-0.19" fx="-0.123"><stop offset="0%" stop-color="#81a0fd" /><stop offset="95%" stop-color="#708dfd" /><stop offset="100%" stop-color="#607afe" /></radialGradient><radialGradient id="i18" gradientUnits="userSpaceOnUse" spreadMethod="pad" cx="-0.123" cy="-0.19" r="13.159" fy="-0.19" fx="-0.123"><stop offset="0%" stop-color="#81a0fd" /><stop offset="95%" stop-color="#708dfd" /><stop offset="100%" stop-color="#607afe" /></radialGradient><radialGradient id="i19" gradientUnits="userSpaceOnUse" spreadMethod="pad" cx="-0.123" cy="-0.19" r="13.159" fy="-0.19" fx="-0.123"><stop offset="0%" stop-color="#81a0fd" /><stop offset="95%" stop-color="#708dfd" /><stop offset="100%" stop-color="#607afe" /></radialGradient><radialGradient id="i20" gradientUnits="userSpaceOnUse" spreadMethod="pad" cx="-0.123" cy="-0.19" r="13.159" fy="-0.19" fx="-0.123"><stop offset="0%" stop-color="#81a0fd" /><stop offset="95%" stop-color="#708dfd" /><stop offset="100%" stop-color="#607afe" /></radialGradient><radialGradient id="i21" gradientUnits="userSpaceOnUse" spreadMethod="pad" cx="-0.123" cy="-0.19" r="13.159" fy="-0.19" fx="-0.123"><stop offset="0%" stop-color="#81a0fd" /><stop offset="95%" stop-color="#708dfd" /><stop offset="100%" stop-color="#607afe" /></radialGradient><radialGradient id="i22" gradientUnits="userSpaceOnUse" spreadMethod="pad" cx="-0.123" cy="-0.19" r="13.159" fy="-0.19" fx="-0.123"><stop offset="0%" stop-color="#81a0fd" /><stop offset="95%" stop-color="#708dfd" /><stop offset="100%" stop-color="#607afe" /></radialGradient><radialGradient id="i23" gradientUnits="userSpaceOnUse" spreadMethod="pad" cx="-0.123" cy="-0.19" r="13.159" fy="-0.19" fx="-0.123"><stop offset="0%" stop-color="#81a0fd" /><stop offset="95%" stop-color="#708dfd" /><stop offset="100%" stop-color="#607afe" /></radialGradient></defs><g opacity="0.96" id="i24"><g transform="translate(199.811,199.12)"><g transform="rotate(345)"><animateTransform repeatCount="indefinite" type="rotate" attributeName="transform" dur="1.533s" begin="0s" calcMode="spline" values="345; 705; 705" keyTimes="0; 0.978261; 1" keySplines="0 0 1 1; 0 0 1 1" fill="freeze" /><g transform="scale(1.2,1.2) translate(16.614,23.54)"><g id="i25" transform="matrix(1.997,0,0,1.997,1,-5)"><rect ry="18" rx="18" height="26" width="26" y="-13" x="-13" stroke-width="0" stroke="#353e9c" fill="url(#i0)" /></g></g></g></g></g><g opacity="0.94" id="i26"><g transform="translate(199.811,199.12)"><g transform="rotate(330)"><animateTransform repeatCount="indefinite" type="rotate" attributeName="transform" dur="1.533s" begin="0s" calcMode="spline" values="330; 690; 690" keyTimes="0; 0.978261; 1" keySplines="0 0 1 1; 0 0 1 1" fill="freeze" /><g transform="scale(1.2,1.2) translate(16.614,23.54)"><g id="i25" transform="matrix(1.997,0,0,1.997,1,-5)"><rect ry="18" rx="18" height="26" width="26" y="-13" x="-13" stroke-width="0" stroke="#353e9c" fill="url(#i1)" /></g></g></g></g></g><g opacity="0.9" id="i27"><g transform="translate(199.811,199.12)"><g transform="rotate(315)"><animateTransform repeatCount="indefinite" type="rotate" attributeName="transform" dur="1.533s" begin="0s" calcMode="spline" values="315; 675; 675" keyTimes="0; 0.978261; 1" keySplines="0 0 1 1; 0 0 1 1" fill="freeze" /><g transform="scale(1.2,1.2) translate(16.614,23.54)"><g id="i25" transform="matrix(1.997,0,0,1.997,1,-5)"><rect ry="18" rx="18" height="26" width="26" y="-13" x="-13" stroke-width="0" stroke="#353e9c" fill="url(#i2)" /></g></g></g></g></g><g opacity="0.86" id="i28"><g transform="translate(199.811,199.12)"><g transform="rotate(300)"><animateTransform repeatCount="indefinite" type="rotate" attributeName="transform" dur="1.533s" begin="0s" calcMode="spline" values="300; 660; 660" keyTimes="0; 0.978261; 1" keySplines="0 0 1 1; 0 0 1 1" fill="freeze" /><g transform="scale(1.2,1.2) translate(16.614,23.54)"><g id="i25" transform="matrix(1.997,0,0,1.997,1,-5)"><rect ry="18" rx="18" height="26" width="26" y="-13" x="-13" stroke-width="0" stroke="#353e9c" fill="url(#i3)" /></g></g></g></g></g><g opacity="0.82" id="i29"><g transform="translate(199.811,199.12)"><g transform="rotate(285)"><animateTransform repeatCount="indefinite" type="rotate" attributeName="transform" dur="1.533s" begin="0s" calcMode="spline" values="285; 645; 645" keyTimes="0; 0.978261; 1" keySplines="0 0 1 1; 0 0 1 1" fill="freeze" /><g transform="scale(1.2,1.2) translate(16.614,23.54)"><g id="i25" transform="matrix(1.997,0,0,1.997,1,-5)"><rect ry="18" rx="18" height="26" width="26" y="-13" x="-13" stroke-width="0" stroke="#353e9c" fill="url(#i4)" /></g></g></g></g></g><g opacity="0.78" id="i30"><g transform="translate(199.811,199.12)"><g transform="rotate(270)"><animateTransform repeatCount="indefinite" type="rotate" attributeName="transform" dur="1.533s" begin="0s" calcMode="spline" values="270; 630; 630" keyTimes="0; 0.978261; 1" keySplines="0 0 1 1; 0 0 1 1" fill="freeze" /><g transform="scale(1.2,1.2) translate(16.614,23.54)"><g id="i25" transform="matrix(1.997,0,0,1.997,1,-5)"><rect ry="18" rx="18" height="26" width="26" y="-13" x="-13" stroke-width="0" stroke="#353e9c" fill="url(#i5)" /></g></g></g></g></g><g opacity="0.74" id="i31"><g transform="translate(199.811,199.12)"><g transform="rotate(255)"><animateTransform repeatCount="indefinite" type="rotate" attributeName="transform" dur="1.533s" begin="0s" calcMode="spline" values="255; 615; 615" keyTimes="0; 0.978261; 1" keySplines="0 0 1 1; 0 0 1 1" fill="freeze" /><g transform="scale(1.2,1.2) translate(16.614,23.54)"><g id="i25" transform="matrix(1.997,0,0,1.997,1,-5)"><rect ry="18" rx="18" height="26" width="26" y="-13" x="-13" stroke-width="0" stroke="#353e9c" fill="url(#i6)" /></g></g></g></g></g><g opacity="0.7" id="i32"><g transform="translate(199.811,199.12)"><g transform="rotate(240)"><animateTransform repeatCount="indefinite" type="rotate" attributeName="transform" dur="1.533s" begin="0s" calcMode="spline" values="240; 600; 600" keyTimes="0; 0.978261; 1" keySplines="0 0 1 1; 0 0 1 1" fill="freeze" /><g transform="scale(1.2,1.2) translate(16.614,23.54)"><g id="i25" transform="matrix(1.997,0,0,1.997,1,-5)"><rect ry="18" rx="18" height="26" width="26" y="-13" x="-13" stroke-width="0" stroke="#353e9c" fill="url(#i7)" /></g></g></g></g></g><g opacity="0.64" id="i33"><g transform="translate(199.811,199.12)"><g transform="rotate(225)"><animateTransform repeatCount="indefinite" type="rotate" attributeName="transform" dur="1.533s" begin="0s" calcMode="spline" values="225; 585; 585" keyTimes="0; 0.978261; 1" keySplines="0 0 1 1; 0 0 1 1" fill="freeze" /><g transform="scale(1.2,1.2) translate(16.614,23.54)"><g id="i25" transform="matrix(1.997,0,0,1.997,1,-5)"><rect ry="18" rx="18" height="26" width="26" y="-13" x="-13" stroke-width="0" stroke="#353e9c" fill="url(#i8)" /></g></g></g></g></g><g opacity="0.6" id="i34"><g transform="translate(199.811,199.12)"><g transform="rotate(210)"><animateTransform repeatCount="indefinite" type="rotate" attributeName="transform" dur="1.533s" begin="0s" calcMode="spline" values="210; 570; 570" keyTimes="0; 0.978261; 1" keySplines="0 0 1 1; 0 0 1 1" fill="freeze" /><g transform="scale(1.2,1.2) translate(16.614,23.54)"><g id="i25" transform="matrix(1.997,0,0,1.997,1,-5)"><rect ry="18" rx="18" height="26" width="26" y="-13" x="-13" stroke-width="0" stroke="#353e9c" fill="url(#i9)" /></g></g></g></g></g><g opacity="0.56" id="i35"><g transform="translate(199.811,199.12)"><g transform="rotate(195)"><animateTransform repeatCount="indefinite" type="rotate" attributeName="transform" dur="1.533s" begin="0s" calcMode="spline" values="195; 555; 555" keyTimes="0; 0.978261; 1" keySplines="0 0 1 1; 0 0 1 1" fill="freeze" /><g transform="scale(1.2,1.2) translate(16.614,23.54)"><g id="i25" transform="matrix(1.997,0,0,1.997,1,-5)"><rect ry="18" rx="18" height="26" width="26" y="-13" x="-13" stroke-width="0" stroke="#353e9c" fill="url(#i10)" /></g></g></g></g></g><g opacity="0.52" id="i36"><g transform="translate(199.811,199.12)"><g transform="rotate(180)"><animateTransform repeatCount="indefinite" type="rotate" attributeName="transform" dur="1.533s" begin="0s" calcMode="spline" values="180; 540; 540" keyTimes="0; 0.978261; 1" keySplines="0 0 1 1; 0 0 1 1" fill="freeze" /><g transform="scale(1.2,1.2) translate(16.614,23.54)"><g id="i25" transform="matrix(1.997,0,0,1.997,1,-5)"><rect ry="18" rx="18" height="26" width="26" y="-13" x="-13" stroke-width="0" stroke="#353e9c" fill="url(#i11)" /></g></g></g></g></g><g opacity="0.48" id="i37"><g transform="translate(199.811,199.12)"><g transform="rotate(165)"><animateTransform repeatCount="indefinite" type="rotate" attributeName="transform" dur="1.533s" begin="0s" calcMode="spline" values="165; 525; 525" keyTimes="0; 0.978261; 1" keySplines="0 0 1 1; 0 0 1 1" fill="freeze" /><g transform="scale(1.2,1.2) translate(16.614,23.54)"><g id="i25" transform="matrix(1.997,0,0,1.997,1,-5)"><rect ry="18" rx="18" height="26" width="26" y="-13" x="-13" stroke-width="0" stroke="#353e9c" fill="url(#i12)" /></g></g></g></g></g><g opacity="0.44" id="i38"><g transform="translate(199.811,199.12)"><g transform="rotate(150)"><animateTransform repeatCount="indefinite" type="rotate" attributeName="transform" dur="1.533s" begin="0s" calcMode="spline" values="150; 510; 510" keyTimes="0; 0.978261; 1" keySplines="0 0 1 1; 0 0 1 1" fill="freeze" /><g transform="scale(1.2,1.2) translate(16.614,23.54)"><g id="i25" transform="matrix(1.997,0,0,1.997,1,-5)"><rect ry="18" rx="18" height="26" width="26" y="-13" x="-13" stroke-width="0" stroke="#353e9c" fill="url(#i13)" /></g></g></g></g></g><g opacity="0.4" id="i39"><g transform="translate(199.811,199.12)"><g transform="rotate(135)"><animateTransform repeatCount="indefinite" type="rotate" attributeName="transform" dur="1.533s" begin="0s" calcMode="spline" values="135; 495; 495" keyTimes="0; 0.978261; 1" keySplines="0 0 1 1; 0 0 1 1" fill="freeze" /><g transform="scale(1.2,1.2) translate(16.614,23.54)"><g id="i25" transform="matrix(1.997,0,0,1.997,1,-5)"><rect ry="18" rx="18" height="26" width="26" y="-13" x="-13" stroke-width="0" stroke="#353e9c" fill="url(#i14)" /></g></g></g></g></g><g opacity="0.36" id="i40"><g transform="translate(199.811,199.12)"><g transform="rotate(120)"><animateTransform repeatCount="indefinite" type="rotate" attributeName="transform" dur="1.533s" begin="0s" calcMode="spline" values="120; 480; 480" keyTimes="0; 0.978261; 1" keySplines="0 0 1 1; 0 0 1 1" fill="freeze" /><g transform="scale(1.2,1.2) translate(16.614,23.54)"><g id="i25" transform="matrix(1.997,0,0,1.997,1,-5)"><rect ry="18" rx="18" height="26" width="26" y="-13" x="-13" stroke-width="0" stroke="#353e9c" fill="url(#i15)" /></g></g></g></g></g><g opacity="0.32" id="i41"><g transform="translate(199.811,199.12)"><g transform="rotate(105)"><animateTransform repeatCount="indefinite" type="rotate" attributeName="transform" dur="1.533s" begin="0s" calcMode="spline" values="105; 465; 465" keyTimes="0; 0.978261; 1" keySplines="0 0 1 1; 0 0 1 1" fill="freeze" /><g transform="scale(1.2,1.2) translate(16.614,23.54)"><g id="i25" transform="matrix(1.997,0,0,1.997,1,-5)"><rect ry="18" rx="18" height="26" width="26" y="-13" x="-13" stroke-width="0" stroke="#353e9c" fill="url(#i16)" /></g></g></g></g></g><g opacity="0.28" id="i42"><g transform="translate(199.811,199.12)"><g transform="rotate(90)"><animateTransform repeatCount="indefinite" type="rotate" attributeName="transform" dur="1.533s" begin="0s" calcMode="spline" values="90; 450; 450" keyTimes="0; 0.978261; 1" keySplines="0 0 1 1; 0 0 1 1" fill="freeze" /><g transform="scale(1.2,1.2) translate(16.614,23.54)"><g id="i25" transform="matrix(1.997,0,0,1.997,1,-5)"><rect ry="18" rx="18" height="26" width="26" y="-13" x="-13" stroke-width="0" stroke="#353e9c" fill="url(#i17)" /></g></g></g></g></g><g opacity="0.24" id="i43"><g transform="translate(199.811,199.12)"><g transform="rotate(75)"><animateTransform repeatCount="indefinite" type="rotate" attributeName="transform" dur="1.533s" begin="0s" calcMode="spline" values="75; 435; 435" keyTimes="0; 0.978261; 1" keySplines="0 0 1 1; 0 0 1 1" fill="freeze" /><g transform="scale(1.2,1.2) translate(16.614,23.54)"><g id="i25" transform="matrix(1.997,0,0,1.997,1,-5)"><rect ry="18" rx="18" height="26" width="26" y="-13" x="-13" stroke-width="0" stroke="#353e9c" fill="url(#i18)" /></g></g></g></g></g><g opacity="0.2" id="i44"><g transform="translate(199.811,199.12)"><g transform="rotate(60)"><animateTransform repeatCount="indefinite" type="rotate" attributeName="transform" dur="1.533s" begin="0s" calcMode="spline" values="60; 420; 420" keyTimes="0; 0.978261; 1" keySplines="0 0 1 1; 0 0 1 1" fill="freeze" /><g transform="scale(1.2,1.2) translate(16.614,23.54)"><g id="i25" transform="matrix(1.997,0,0,1.997,1,-5)"><rect ry="18" rx="18" height="26" width="26" y="-13" x="-13" stroke-width="0" stroke="#353e9c" fill="url(#i19)" /></g></g></g></g></g><g opacity="0.16" id="i45"><g transform="translate(199.811,199.12)"><g transform="rotate(45)"><animateTransform repeatCount="indefinite" type="rotate" attributeName="transform" dur="1.533s" begin="0s" calcMode="spline" values="45; 405; 405" keyTimes="0; 0.978261; 1" keySplines="0 0 1 1; 0 0 1 1" fill="freeze" /><g transform="scale(1.2,1.2) translate(16.614,23.54)"><g id="i25" transform="matrix(1.997,0,0,1.997,1,-5)"><rect ry="18" rx="18" height="26" width="26" y="-13" x="-13" stroke-width="0" stroke="#353e9c" fill="url(#i20)" /></g></g></g></g></g><g opacity="0.12" id="i46"><g transform="translate(199.811,199.12)"><g transform="rotate(360)"><animateTransform repeatCount="indefinite" type="rotate" attributeName="transform" dur="1.533s" begin="0s" calcMode="spline" values="360; 720; 720" keyTimes="0; 0.978261; 1" keySplines="0 0 1 1; 0 0 1 1" fill="freeze" /><g transform="scale(1.2,1.2) translate(16.614,23.54)"><g id="i25" transform="matrix(1.997,0,0,1.997,1,-5)"><rect ry="18" rx="18" height="26" width="26" y="-13" x="-13" stroke-width="0" stroke="#353e9c" fill="url(#i21)" /></g></g></g></g></g><g opacity="0.08" id="i47"><g transform="translate(199.811,199.12)"><g transform="rotate(30)"><animateTransform repeatCount="indefinite" type="rotate" attributeName="transform" dur="1.533s" begin="0s" calcMode="spline" values="30; 390; 390" keyTimes="0; 0.978261; 1" keySplines="0 0 1 1; 0 0 1 1" fill="freeze" /><g transform="scale(1.2,1.2) translate(16.614,23.54)"><g id="i25" transform="matrix(1.997,0,0,1.997,1,-5)"><rect ry="18" rx="18" height="26" width="26" y="-13" x="-13" stroke-width="0" stroke="#353e9c" fill="url(#i22)" /></g></g></g></g></g><g opacity="0.04" id="i48"><g transform="translate(199.811,199.12)"><g transform="rotate(15)"><animateTransform repeatCount="indefinite" type="rotate" attributeName="transform" dur="1.533s" begin="0s" calcMode="spline" values="15; 375; 375" keyTimes="0; 0.978261; 1" keySplines="0 0 1 1; 0 0 1 1" fill="freeze" /><g transform="scale(1.2,1.2) translate(16.614,23.54)"><g id="i25" transform="matrix(1.997,0,0,1.997,1,-5)"><rect ry="18" rx="18" height="26" width="26" y="-13" x="-13" stroke-width="0" stroke="#353e9c" fill="url(#i23)" /></g></g></g></g></g></svg>